<svg t="1639209589541" class="icon" viewBox="0 0 1073 1024" version="1.1" xmlns="http://www.w3.org/2000/svg" p-id="8393" width="200" height="200"><path d="M1073.714286 544q0 17.714286-17.714286 37.714286l-192 226.285714q-24.571429 29.142857-68.857143 49.428571T713.142857 877.714286H91.428571q-19.428571 0-34.571428-7.428572T41.714286 845.714286q0-17.714286 17.714285-37.714286l192-226.285714q24.571429-29.142857 68.857143-49.428572T402.285714 512h621.714286q19.428571 0 34.571429 7.428571t15.142857 24.571429z m-196-196.571429v91.428572H402.285714q-53.714286 0-112.571428 27.142857T196 534.285714l-192.571429 226.285715-2.857142 3.428571q0-2.285714-0.285715-7.142857t-0.285714-7.142857V201.142857q0-52.571429 37.714286-90.285714t90.285714-37.714286h182.857143q52.571429 0 90.285714 37.714286t37.714286 90.285714v18.285714h310.857143q52.571429 0 90.285714 37.714286t37.714286 90.285714z" p-id="8394"></path></svg>